<svg width="74" height="87" viewBox="0 0 74 87" fill="none" xmlns="http://www.w3.org/2000/svg">
<path d="M2.5498 0.478516H63.5469C64.6908 0.478722 65.6182 1.40586 65.6182 2.5498V82.9863C65.6182 84.1303 64.6908 85.0574 63.5469 85.0576H2.5498C1.40573 85.0576 0.478516 84.1304 0.478516 82.9863V2.5498C0.478516 1.40573 1.40574 0.478516 2.5498 0.478516Z" fill="white"/>
<path d="M2.5498 0.478516H63.5469C64.6908 0.478722 65.6182 1.40586 65.6182 2.5498V82.9863C65.6182 84.1303 64.6908 85.0574 63.5469 85.0576H2.5498C1.40573 85.0576 0.478516 84.1304 0.478516 82.9863V2.5498C0.478516 1.40573 1.40574 0.478516 2.5498 0.478516Z" stroke="#44403C" stroke-width="0.956087"/>
<path d="M15.979 10.9006C15.979 10.372 16.4076 9.94342 16.9362 9.94342H49.4814C50.0101 9.94342 50.4386 10.372 50.4386 10.9006C50.4386 11.4293 50.0101 11.8578 49.4814 11.8578H16.9362C16.4076 11.8578 15.979 11.4293 15.979 10.9006Z" fill="#A8A29E"/>
<rect x="12.3096" y="16.3242" width="19.1442" height="0.796739" rx="0.398369" fill="#A8A29E"/>
<rect x="12.3096" y="20.6903" width="19.1442" height="0.796739" rx="0.398369" fill="#A8A29E"/>
<rect x="12.3096" y="25.0565" width="19.1442" height="0.796739" rx="0.398369" fill="#A8A29E"/>
<rect x="12.3096" y="29.4226" width="19.1442" height="0.796739" rx="0.398369" fill="#A8A29E"/>
<rect x="12.3096" y="33.7888" width="19.1442" height="0.796739" rx="0.398369" fill="#A8A29E"/>
<rect x="34.7256" y="16.3242" width="19.1442" height="0.796739" rx="0.398369" fill="#A8A29E"/>
<rect x="34.7256" y="20.6903" width="16.5977" height="0.796739" rx="0.398369" fill="#A8A29E"/>
<rect x="34.7256" y="25.0565" width="12.7733" height="0.796739" rx="0.398369" fill="#A8A29E"/>
<rect x="34.7256" y="29.4226" width="15.2974" height="0.796739" rx="0.398369" fill="#A8A29E"/>
<rect x="12.3096" y="59.0293" width="19.1442" height="0.796739" rx="0.398369" fill="#A8A29E"/>
<rect x="12.3096" y="63.3954" width="19.1442" height="0.796739" rx="0.398369" fill="#A8A29E"/>
<rect x="12.3096" y="67.7615" width="19.1442" height="0.796739" rx="0.398369" fill="#A8A29E"/>
<rect x="12.3096" y="72.1276" width="19.1442" height="0.796739" rx="0.398369" fill="#A8A29E"/>
<rect x="12.3096" y="76.4938" width="19.1442" height="0.796739" rx="0.398369" fill="#A8A29E"/>
<rect x="34.7256" y="59.0293" width="19.1442" height="0.796739" rx="0.398369" fill="#A8A29E"/>
<rect x="34.7256" y="63.3955" width="19.1442" height="0.796739" rx="0.398369" fill="#A8A29E"/>
<rect x="34.7256" y="67.7616" width="19.1442" height="0.796739" rx="0.398369" fill="#A8A29E"/>
<rect x="34.7256" y="72.1278" width="19.1442" height="0.796739" rx="0.398369" fill="#A8A29E"/>
<rect x="34.7256" y="76.4939" width="19.1442" height="0.796739" rx="0.398369" fill="#A8A29E"/>
<rect x="12.6361" y="37.9251" width="40.8267" height="16.8653" rx="0.637391" fill="white"/>
<rect x="12.6361" y="37.9251" width="40.8267" height="16.8653" rx="0.637391" stroke="#A8A29E" stroke-width="0.637391"/>
<line x1="14.328" y1="42.7398" x2="51.879" y2="42.7398" stroke="white" stroke-width="0.0319883" stroke-linecap="square" stroke-dasharray="0.06 0.06"/>
<rect x="14.4702" y="47.7953" width="1.28189" height="4.28938" fill="#EB8080"/>
<rect x="16.04" y="47.2037" width="1.28189" height="4.88102" fill="#EB8080"/>
<rect x="17.6104" y="45.9219" width="1.28189" height="6.16291" fill="#EB8080"/>
<rect x="19.1807" y="44.2949" width="1.28189" height="7.78992" fill="#EB8080"/>
<rect x="20.7505" y="47.2037" width="1.28189" height="4.88102" fill="#EB8080"/>
<rect x="22.3208" y="47.7462" width="1.28189" height="4.33869" fill="#EB8080"/>
<rect x="23.8906" y="40.4492" width="1.28189" height="11.6356" fill="#EB8080"/>
<rect x="25.4604" y="44.7879" width="1.28189" height="7.29689" fill="#EB8080"/>
<rect x="27.0308" y="45.6753" width="1.28189" height="6.40943" fill="#EB8080"/>
<rect x="28.6006" y="44.1962" width="1.28189" height="7.88852" fill="#EB8080"/>
<rect x="30.1709" y="45.8725" width="1.28189" height="6.21221" fill="#EB8080"/>
<rect x="31.7407" y="47.7462" width="1.28189" height="4.33869" fill="#EB8080"/>
<rect x="33.3105" y="47.7461" width="1.28189" height="4.33869" fill="#EB8080"/>
<rect x="34.8809" y="45.133" width="1.28189" height="6.95176" fill="#EB8080"/>
<rect x="36.4512" y="43.4566" width="1.28189" height="8.62807" fill="#EB8080"/>
<rect x="38.021" y="46.6614" width="1.28189" height="5.42336" fill="#EB8080"/>
<rect x="39.5913" y="44.1963" width="1.28189" height="7.88852" fill="#EB8080"/>
<rect x="41.1611" y="46.2669" width="1.28189" height="5.81779" fill="#EB8080"/>
<rect x="42.731" y="43.4566" width="1.23258" height="8.62807" fill="#EB8080"/>
<rect x="44.252" y="46.6614" width="1.42979" height="5.42336" fill="#EB8080"/>
<rect x="45.9697" y="44.7879" width="1.28189" height="7.29689" fill="#EB8080"/>
<rect x="47.54" y="42.7171" width="1.28189" height="9.36762" fill="#EB8080"/>
<rect x="49.1099" y="43.4566" width="1.28189" height="8.62807" fill="#EB8080"/>
<rect x="50.6802" y="45.133" width="1.23258" height="6.95176" fill="#EB8080"/>
<g filter="url(#filter0_d_522_3590)">
<path d="M65.5996 38.8229C65.6938 38.7662 65.8167 38.7755 65.9014 38.8512C67.3639 40.1602 69.2571 40.9971 71.3428 41.1217L71.7627 41.1374L71.8076 41.1413C71.9105 41.1611 71.9929 41.2439 72.0107 41.3503C72.0971 41.8647 72.1416 42.3936 72.1416 42.9323C72.1414 47.0638 69.5011 50.578 65.8164 51.8805C65.7615 51.8999 65.7014 51.8998 65.6465 51.8805C61.9616 50.5781 59.3205 47.0639 59.3203 42.9323C59.3203 42.3936 59.3648 41.8647 59.4512 41.3503L59.4629 41.3063C59.4981 41.2076 59.5914 41.139 59.6992 41.1374C61.9501 41.1068 64.0005 40.2475 65.5605 38.8512L65.5996 38.8229Z" fill="#F1AAAA" stroke="#9B1E1E" stroke-width="0.509914" stroke-linejoin="round"/>
<rect x="68.4922" y="40.7993" width="8.16895" height="6.2969" transform="rotate(84.3456 68.4922 40.7993)" fill="#9B1E1E"/>
<path fill-rule="evenodd" clip-rule="evenodd" d="M65.7311 39.0417C64.1269 40.4774 62.0178 41.3606 59.703 41.392C59.619 41.8928 59.5752 42.4072 59.5752 42.9318C59.5752 46.9523 62.1447 50.3726 65.7311 51.6402C69.3174 50.3726 71.8869 46.9523 71.8869 42.9318C71.8869 42.4072 71.8432 41.8928 71.7591 41.392C69.4443 41.3606 67.3352 40.4774 65.7311 39.0417ZM66.5005 48.3182C66.5005 48.7432 66.156 49.0877 65.7311 49.0877C65.3061 49.0877 64.9616 48.7432 64.9616 48.3182C64.9616 47.8932 65.3061 47.5487 65.7311 47.5487C66.156 47.5487 66.5005 47.8932 66.5005 48.3182ZM66.5005 42.9318C66.5005 42.5068 66.156 42.1623 65.7311 42.1623C65.3061 42.1623 64.9616 42.5068 64.9616 42.9318V45.2403C64.9616 45.6652 65.3061 46.0097 65.7311 46.0097C66.156 46.0097 66.5005 45.6652 66.5005 45.2403V42.9318Z" fill="#F1AAAA"/>
</g>
<path d="M65.9536 4.84415C66.0482 4.78635 66.1723 4.79572 66.2573 4.87247C67.6611 6.14257 69.4781 6.95465 71.479 7.07559L71.8823 7.09024L71.9272 7.09512C72.0301 7.11511 72.1127 7.19667 72.1304 7.30313C72.2134 7.80331 72.2563 8.31754 72.2563 8.84122C72.2562 12.8559 69.7177 16.2725 66.1724 17.5395C66.1169 17.5593 66.056 17.5593 66.0005 17.5395C62.4551 16.2725 59.9167 12.856 59.9165 8.84122C59.9165 8.31754 59.9594 7.80331 60.0425 7.30313L60.0542 7.25919C60.0894 7.16053 60.1827 7.0918 60.2905 7.09024C62.4501 7.06062 64.4181 6.22735 65.9155 4.87247L65.9536 4.84415Z" fill="#7FE8C9" stroke="#1B8364" stroke-width="0.509914" stroke-linejoin="round"/>
<rect x="62.3286" y="8.10196" width="7.75737" height="6.04502" fill="#1B8364"/>
<path fill-rule="evenodd" clip-rule="evenodd" d="M60.2942 7.34499C62.5184 7.31449 64.545 6.45658 66.0864 5.06192C67.6278 6.45658 69.6543 7.31449 71.8786 7.34499C71.9593 7.83142 72.0014 8.33112 72.0014 8.84075C72.0014 12.7461 69.5324 16.0685 66.0864 17.2998C62.6403 16.0685 60.1714 12.7461 60.1714 8.84075C60.1714 8.33112 60.2134 7.83142 60.2942 7.34499ZM68.8273 10.1167C69.1161 9.82482 69.1161 9.35156 68.8273 9.05966C68.5386 8.76775 68.0704 8.76775 67.7817 9.05966L65.347 11.521L64.3911 10.5546C64.1023 10.2627 63.6342 10.2627 63.3454 10.5546C63.0567 10.8465 63.0567 11.3197 63.3454 11.6116L64.8242 13.1066C65.1129 13.3985 65.5811 13.3985 65.8698 13.1066L68.8273 10.1167Z" fill="#7FE8C9"/>
<g filter="url(#filter1_d_522_3590)">
<path d="M65.9536 62.3901C66.0482 62.3323 66.1723 62.3417 66.2573 62.4185C67.6611 63.6886 69.4781 64.5006 71.479 64.6216L71.8823 64.6362L71.9272 64.6411C72.0301 64.6611 72.1127 64.7427 72.1304 64.8491C72.2134 65.3493 72.2563 65.8635 72.2563 66.3872C72.2562 70.4019 69.7177 73.8185 66.1724 75.0854C66.1169 75.1053 66.056 75.1053 66.0005 75.0854C62.4551 73.8185 59.9167 70.4019 59.9165 66.3872C59.9165 65.8635 59.9594 65.3493 60.0425 64.8491L60.0542 64.8052C60.0894 64.7065 60.1827 64.6378 60.2905 64.6362C62.4501 64.6066 64.4181 63.7733 65.9155 62.4185L65.9536 62.3901Z" fill="#7FE8C9" stroke="#1B8364" stroke-width="0.509914" stroke-linejoin="round"/>
<rect x="62.3286" y="65.647" width="7.75737" height="6.04502" fill="#1B8364"/>
<path fill-rule="evenodd" clip-rule="evenodd" d="M60.2942 64.891C62.5184 64.8605 64.545 64.0026 66.0864 62.6079C67.6278 64.0026 69.6543 64.8605 71.8786 64.891C71.9593 65.3774 72.0014 65.8771 72.0014 66.3867C72.0014 70.2921 69.5324 73.6145 66.0864 74.8458C62.6403 73.6145 60.1714 70.2921 60.1714 66.3867C60.1714 65.8771 60.2134 65.3774 60.2942 64.891ZM68.8273 67.6627C69.1161 67.3708 69.1161 66.8975 68.8273 66.6056C68.5386 66.3137 68.0704 66.3137 67.7817 66.6056L65.347 69.0669L64.3911 68.1006C64.1023 67.8087 63.6342 67.8087 63.3454 68.1006C63.0567 68.3925 63.0567 68.8657 63.3454 69.1576L64.8242 70.6525C65.1129 70.9444 65.5811 70.9444 65.8698 70.6525L68.8273 67.6627Z" fill="#7FE8C9"/>
</g>
<defs>
<filter id="filter0_d_522_3590" x="58.0456" y="38.5317" width="15.3712" height="15.658" filterUnits="userSpaceOnUse" color-interpolation-filters="sRGB">
<feFlood flood-opacity="0" result="BackgroundImageFix"/>
<feColorMatrix in="SourceAlpha" type="matrix" values="0 0 0 0 0 0 0 0 0 0 0 0 0 0 0 0 0 0 127 0" result="hardAlpha"/>
<feOffset dy="1.01983"/>
<feGaussianBlur stdDeviation="0.509914"/>
<feComposite in2="hardAlpha" operator="out"/>
<feColorMatrix type="matrix" values="0 0 0 0 0.960784 0 0 0 0 0.576471 0 0 0 0 0.576471 0 0 0 0.4 0"/>
<feBlend mode="multiply" in2="BackgroundImageFix" result="effect1_dropShadow_522_3590"/>
<feBlend mode="normal" in="SourceGraphic" in2="effect1_dropShadow_522_3590" result="shape"/>
</filter>
<filter id="filter1_d_522_3590" x="58.6418" y="62.098" width="14.8893" height="15.2974" filterUnits="userSpaceOnUse" color-interpolation-filters="sRGB">
<feFlood flood-opacity="0" result="BackgroundImageFix"/>
<feColorMatrix in="SourceAlpha" type="matrix" values="0 0 0 0 0 0 0 0 0 0 0 0 0 0 0 0 0 0 127 0" result="hardAlpha"/>
<feOffset dy="1.01983"/>
<feGaussianBlur stdDeviation="0.509914"/>
<feComposite in2="hardAlpha" operator="out"/>
<feColorMatrix type="matrix" values="0 0 0 0 0.576471 0 0 0 0 0.960784 0 0 0 0 0.705882 0 0 0 0.4 0"/>
<feBlend mode="normal" in2="BackgroundImageFix" result="effect1_dropShadow_522_3590"/>
<feBlend mode="normal" in="SourceGraphic" in2="effect1_dropShadow_522_3590" result="shape"/>
</filter>
</defs>
</svg>
