<?xml version="1.0" encoding="UTF-8"?>
<svg id="logosandtypes_com" data-name="logosandtypes com" xmlns="http://www.w3.org/2000/svg" viewBox="0 0 150 150">
  <defs>
    <style>
      .cls-1 {
        fill: none;
      }

      .cls-2 {
        fill-rule: evenodd;
      }
    </style>
  </defs>
  <path class="cls-1" d="M0,0H150V150H0V0Z"/>
  <path class="cls-2" d="M81.58,8.72l-2.78,34.26c-1.31-.15-2.63-.23-3.98-.23-1.69,0-3.34,.11-4.96,.38l-1.58-16.6c-.04-.53,.38-.98,.9-.98h2.82l-1.35-16.79c-.04-.53,.38-.98,.86-.98h9.2c.53,0,.94,.45,.86,.98h0v-.04Zm-23.22,1.69c-.15-.49-.68-.79-1.16-.6l-8.64,3.16c-.49,.19-.71,.75-.49,1.2l7.03,15.33-2.67,.98c-.49,.19-.71,.75-.49,1.2l7.18,15.06c2.59-1.43,5.41-2.52,8.38-3.19L58.4,10.41h-.04Zm-21.19,9.54l19.87,28.02c-2.52,1.65-4.81,3.61-6.76,5.86l-11.91-11.72c-.38-.38-.34-.98,.04-1.31l2.18-1.8-11.83-11.98c-.38-.38-.34-.98,.08-1.31l7.03-5.9c.41-.34,.98-.26,1.28,.15h.04Zm-16.68,16.23c-.41-.3-1.01-.15-1.28,.3l-4.58,7.96c-.26,.45-.08,1.01,.38,1.24l15.25,7.21-1.43,2.44c-.26,.45-.08,1.05,.41,1.24l15.18,6.95c1.09-2.82,2.55-5.45,4.36-7.81l-28.29-19.53Zm-11.23,21.64c.08-.53,.6-.83,1.09-.71l33.25,8.68c-.86,2.82-1.35,5.79-1.43,8.87l-16.64-1.35c-.53-.04-.9-.53-.79-1.05l.49-2.78-16.79-1.58c-.53-.04-.86-.53-.79-1.05l1.58-9.05h0l.04,.04Zm-1.24,22.47c-.53,.04-.86,.53-.79,1.05l1.62,9.05c.08,.53,.6,.83,1.09,.71l16.3-4.25,.49,2.78c.08,.53,.6,.83,1.09,.71l16.08-4.43c-.94-2.78-1.54-5.75-1.69-8.79l-34.22,3.16h.04Zm5.33,23.82c-.26-.45-.08-1.01,.38-1.24l31.03-14.73c1.16,2.78,2.74,5.37,4.62,7.7l-13.6,9.69c-.41,.3-1.01,.19-1.28-.26l-1.43-2.48-13.86,9.58c-.41,.3-1.01,.15-1.28-.3l-4.62-7.96h.04Zm37.6-6.46l-24.16,24.46c-.38,.38-.34,.98,.08,1.31l7.06,5.9c.41,.34,.98,.26,1.28-.15l9.77-13.75,2.18,1.84c.41,.34,1.01,.26,1.31-.19l9.47-13.75c-2.55-1.58-4.92-3.49-6.95-5.67h-.04Zm-4.77,39.26c-.49-.19-.71-.75-.49-1.2l14.31-31.26c2.63,1.35,5.48,2.37,8.45,2.93l-4.21,16.15c-.11,.49-.68,.79-1.16,.6l-2.67-.98-4.47,16.27c-.15,.49-.68,.79-1.16,.6l-8.64-3.16h0l.04,.04Zm24.64-29.11l-2.78,34.26c-.04,.53,.38,.98,.86,.98h9.2c.53,0,.94-.45,.86-.98l-1.35-16.79h2.82c.53,0,.94-.45,.9-.98l-1.58-16.6c-1.62,.26-3.27,.38-4.96,.38-1.35,0-2.67-.08-3.98-.26h0ZM103.97,15.03c.23-.49,0-1.01-.49-1.2l-8.64-3.16c-.49-.19-1.01,.11-1.16,.6l-4.47,16.27-2.67-.98c-.49-.19-1.01,.11-1.16,.6l-4.21,16.15c3.01,.6,5.82,1.62,8.45,2.93l14.35-31.22h0Zm18.86,13.64l-24.16,24.46c-2.03-2.18-4.36-4.09-6.95-5.67l9.47-13.75c.3-.41,.9-.53,1.31-.19l2.18,1.84,9.77-13.75c.3-.41,.9-.49,1.28-.15l7.06,5.9c.41,.34,.41,.94,.08,1.31h-.04Zm13.07,19.23c.49-.23,.64-.79,.38-1.24l-4.62-7.96c-.26-.45-.86-.56-1.28-.3l-13.86,9.58-1.43-2.44c-.26-.45-.86-.6-1.28-.26l-13.6,9.69c1.88,2.33,3.42,4.92,4.62,7.7l31.03-14.73,.04-.04Zm4.88,12.47l1.58,9.05c.08,.53-.26,.98-.79,1.05l-34.22,3.19c-.15-3.08-.75-6.01-1.69-8.79l16.08-4.43c.49-.15,1.01,.19,1.09,.71l.49,2.78,16.3-4.25c.49-.11,1.01,.19,1.09,.71h0l.08-.04Zm-1.54,33.25c.49,.11,1.01-.19,1.09-.71l1.58-9.05c.08-.53-.26-.98-.79-1.05l-16.79-1.58,.49-2.78c.08-.53-.26-.98-.79-1.05l-16.64-1.35c-.08,3.08-.56,6.05-1.43,8.87l33.25,8.68h0l.04,.04Zm-8.87,20.66c-.26,.45-.86,.56-1.28,.3l-28.29-19.53c1.8-2.37,3.27-5,4.36-7.81l15.18,6.95c.49,.23,.68,.79,.41,1.24l-1.43,2.44,15.25,7.21c.45,.23,.64,.79,.38,1.24l-4.58,7.96h0Zm-37.83-11.53l19.87,28.02c.3,.41,.9,.49,1.28,.15l7.03-5.9c.41-.34,.41-.94,.08-1.31l-11.83-11.98,2.18-1.8c.41-.34,.41-.94,.04-1.31l-11.91-11.72c-1.99,2.25-4.25,4.25-6.76,5.86h.04Zm-.19,38.17c-.49,.19-1.01-.11-1.16-.6l-9.09-33.13c2.97-.68,5.79-1.77,8.38-3.19l7.18,15.06c.23,.49,0,1.05-.49,1.2l-2.67,.98,7.03,15.33c.23,.49,0,1.01-.49,1.2l-8.64,3.16h-.04Z"/>
</svg>