<svg width="67" height="22" viewBox="0 0 70 24" fill="none" xmlns="http://www.w3.org/2000/svg">
<path d="M60.1438 14.313C58.312 14.313 57.0206 12.8836 57.0206 11.0037C57.0206 9.12374 58.312 7.69428 60.1438 7.69428C61.9757 7.69428 63.231 9.12374 63.231 11.0037C63.231 12.8836 61.9577 14.313 60.1438 14.313ZM59.8495 16.283C61.327 16.283 62.5823 15.7064 63.3751 14.4992C63.5253 15.6704 64.3721 16.0968 65.4412 16.0968H66.2941V14.241H65.9277C65.3211 14.241 65.171 13.9467 65.171 13.2559V5.91647H63.213V7.42401C62.5463 6.36693 61.291 5.73028 59.8495 5.73028C57.2789 5.73028 54.9185 7.88648 54.9185 11.0037C54.9185 14.1208 57.2849 16.277 59.8495 16.277V16.283ZM49.7653 13.7364C49.7653 15.4061 50.7983 16.0968 52.0356 16.0968H54.42V14.241H52.6842C51.9635 14.241 51.8133 13.9647 51.8133 13.2559V7.77236H54.42V5.91647H51.8133V2.49899H49.7653V13.7364ZM40.4378 16.0968H42.4858V11.7304H43.1705L46.6601 16.0968H49.2487L44.7982 10.5592L48.2157 5.91647H45.9093L43.1165 9.83847H42.4858V2.49899H40.4378V16.0968ZM33.789 5.73028C30.9241 5.73028 28.5636 7.88648 28.5636 11.0037C28.5636 14.1208 30.9301 16.277 33.789 16.277C36.6479 16.277 39.0143 14.1208 39.0143 11.0037C39.0143 7.88648 36.6479 5.73028 33.789 5.73028ZM33.789 14.313C31.9571 14.313 30.6658 12.8836 30.6658 11.0037C30.6658 9.12374 31.9571 7.69428 33.789 7.69428C35.6208 7.69428 36.9122 9.12374 36.9122 11.0037C36.9122 12.8836 35.6208 14.313 33.789 14.313Z" fill="#191919"/>
<path fill-rule="evenodd" clip-rule="evenodd" d="M12.5933 0.252692L12.1489 5.73028C11.9387 5.70625 11.7285 5.69424 11.5122 5.69424C11.242 5.69424 10.9777 5.71226 10.7194 5.7543L10.4672 3.09959C10.4612 3.01551 10.5272 2.94343 10.6113 2.94343H11.0618L10.8456 0.258698C10.8396 0.174613 10.9056 0.102539 10.9837 0.102539H12.4552C12.5393 0.102539 12.6054 0.174613 12.5933 0.258698V0.252692ZM8.88156 0.522968C8.85754 0.444888 8.77345 0.396839 8.69537 0.42687L7.31397 0.931384C7.23589 0.961414 7.19985 1.05151 7.23589 1.12358L8.35903 3.57408L7.9326 3.73024C7.85452 3.76027 7.81848 3.85036 7.85452 3.92243L9.00169 6.33089C9.41611 6.10265 9.86657 5.92848 10.3411 5.82037L8.88757 0.522968H8.88156ZM5.49411 2.04852L8.67135 6.52909C8.26894 6.79336 7.90257 7.10568 7.59025 7.46604L5.68631 5.59213C5.62625 5.53207 5.63225 5.43598 5.69231 5.38192L6.04067 5.09363L4.14874 3.17767C4.08868 3.11761 4.09469 3.02151 4.16075 2.96746L5.2839 2.0245C5.34996 1.97044 5.44006 1.98246 5.48811 2.04852H5.49411ZM2.82739 4.64317C2.76133 4.59512 2.66523 4.61914 2.62319 4.69122L1.89044 5.96451C1.8484 6.03659 1.87843 6.12668 1.9505 6.16272L4.38898 7.31589L4.16075 7.70629C4.11871 7.77836 4.14874 7.87446 4.22682 7.90449L6.65329 9.01562C6.82747 8.56517 7.06171 8.14474 7.35 7.76635L2.82739 4.64317ZM1.03156 8.10269C1.04358 8.01861 1.12766 7.97056 1.20574 7.98858L6.52116 9.37599C6.38302 9.82645 6.30494 10.3009 6.29293 10.7934L3.63221 10.5772C3.54813 10.5712 3.48807 10.4931 3.50609 10.409L3.58417 9.96459L0.899428 9.71233C0.815343 9.70633 0.761288 9.62825 0.7733 9.54416L1.02556 8.09669L1.03156 8.10269ZM0.833361 11.6944C0.749275 11.7004 0.69522 11.7784 0.707233 11.8625L0.965496 13.31C0.977508 13.3941 1.06159 13.4421 1.13967 13.4241L3.74633 12.7454L3.82441 13.1899C3.83642 13.274 3.92051 13.322 3.99859 13.304L6.56921 12.5953C6.41905 12.1508 6.32296 11.6763 6.29893 11.1898L0.827355 11.6944H0.833361ZM1.68623 15.5022C1.64419 15.4302 1.67422 15.3401 1.74629 15.304L6.70735 12.9496C6.89354 13.3941 7.14579 13.8085 7.4461 14.1809L5.27189 15.7305C5.20582 15.7785 5.10972 15.7605 5.06768 15.6884L4.83944 15.292L2.62319 16.8236C2.55712 16.8716 2.46102 16.8476 2.41898 16.7755L1.68022 15.5022H1.68623ZM7.69836 14.4692L3.83642 18.3792C3.77636 18.4392 3.78237 18.5353 3.84843 18.5894L4.97758 19.5323C5.04365 19.5864 5.13374 19.5744 5.18179 19.5083L6.74339 17.3101L7.09174 17.6044C7.15781 17.6584 7.2539 17.6464 7.30195 17.5743L8.8155 15.3761C8.40708 15.1238 8.0287 14.8175 7.70436 14.4692H7.69836ZM6.93558 20.7456C6.8575 20.7155 6.82146 20.6255 6.8575 20.5534L9.14583 15.5563C9.56626 15.7725 10.0227 15.9347 10.4972 16.0248L9.82452 18.6074C9.80651 18.6855 9.71642 18.7335 9.63834 18.7035L9.2119 18.5473L8.49717 21.148C8.47315 21.2261 8.38906 21.2741 8.31098 21.2441L6.92957 20.7396L6.93558 20.7456ZM10.8756 16.0908L10.4311 21.5684C10.4251 21.6525 10.4912 21.7246 10.5693 21.7246H12.0408C12.1249 21.7246 12.1909 21.6525 12.1789 21.5684L11.9627 18.8837H12.4132C12.4972 18.8837 12.5633 18.8116 12.5573 18.7275L12.3051 16.0728C12.0468 16.1149 11.7825 16.1329 11.5122 16.1329C11.296 16.1329 11.0858 16.1209 10.8756 16.0908ZM16.173 1.26172C16.209 1.18364 16.173 1.09956 16.0949 1.06952L14.7135 0.56501C14.6354 0.53498 14.5513 0.583029 14.5273 0.661108L13.8126 3.26176L13.3862 3.1056C13.3081 3.07557 13.224 3.12362 13.2 3.2017L12.5273 5.78433C13.0078 5.88043 13.4582 6.04259 13.8787 6.25281L16.173 1.26172ZM19.1881 3.44194L15.3261 7.35193C15.0018 7.00357 14.6294 6.69726 14.215 6.445L15.7285 4.24676C15.7766 4.1807 15.8727 4.16268 15.9388 4.21673L16.2871 4.51103L17.8487 2.31279C17.8968 2.24672 17.9929 2.23471 18.0529 2.28877L19.1821 3.23173C19.2481 3.28578 19.2481 3.38188 19.1941 3.44194H19.1881ZM21.2782 6.51708C21.3563 6.48104 21.3803 6.39095 21.3383 6.31887L20.5995 5.04558C20.5575 4.9735 20.4614 4.95548 20.3953 4.99753L18.179 6.52909L17.9508 6.13869C17.9088 6.06662 17.8127 6.04259 17.7466 6.09665L15.5724 7.64623C15.8727 8.01861 16.1189 8.43303 16.3111 8.87748L21.2722 6.52308L21.2782 6.51708ZM22.059 8.51111L22.3113 9.95858C22.3233 10.0427 22.2692 10.1147 22.1851 10.1268L16.7135 10.6373C16.6895 10.1448 16.5934 9.6763 16.4433 9.23184L19.0139 8.52312C19.092 8.4991 19.1761 8.55315 19.1881 8.63724L19.2661 9.08169L21.8728 8.403C21.9509 8.38498 22.035 8.43303 22.047 8.51712L22.059 8.51111ZM21.8127 13.8265C21.8908 13.8445 21.9749 13.7965 21.9869 13.7124L22.2392 12.2649C22.2512 12.1809 22.1971 12.1088 22.1131 12.0968L19.4283 11.8445L19.5064 11.4001C19.5184 11.316 19.4643 11.2439 19.3803 11.2319L16.7196 11.0157C16.7075 11.5082 16.6295 11.9826 16.4913 12.4331L21.8067 13.8205L21.8127 13.8265ZM20.3953 17.1299C20.3533 17.202 20.2572 17.22 20.1911 17.1779L15.6685 14.0548C15.9568 13.6764 16.191 13.2559 16.3652 12.8055L18.7917 13.9166C18.8697 13.9527 18.8998 14.0427 18.8577 14.1148L18.6295 14.5052L21.068 15.6584C21.1401 15.6944 21.1701 15.7845 21.128 15.8566L20.3953 17.1299ZM14.3471 15.286L17.5244 19.7666C17.5724 19.8326 17.6685 19.8447 17.7286 19.7906L18.8517 18.8476C18.9178 18.7936 18.9178 18.6975 18.8637 18.6374L16.9718 16.7215L17.3202 16.4332C17.3862 16.3791 17.3862 16.283 17.3262 16.223L15.4222 14.3491C15.1039 14.7094 14.7435 15.0278 14.3411 15.286H14.3471ZM14.3171 21.3882C14.239 21.4183 14.1549 21.3702 14.1309 21.2921L12.6774 15.9947C13.1519 15.8866 13.6024 15.7124 14.0168 15.4842L15.164 17.8927C15.2 17.9708 15.164 18.0608 15.0859 18.0849L14.6595 18.241L15.7826 20.6915C15.8186 20.7696 15.7826 20.8537 15.7045 20.8837L14.3231 21.3882H14.3171Z" fill="#191919"/>
</svg>
