<?xml version="1.0" encoding="UTF-8" standalone="no"?>
<!-- Created with Inkscape (http://www.inkscape.org/) -->

<svg
   width="21.268375mm"
   height="5.5879946mm"
   viewBox="0 0 21.268375 5.5879946"
   version="1.1"
   id="svg917"
   inkscape:version="1.1.2 (b8e25be8, 2022-02-05)"
   sodipodi:docname="orcid-logo-text.svg"
   xmlns:inkscape="http://www.inkscape.org/namespaces/inkscape"
   xmlns:sodipodi="http://sodipodi.sourceforge.net/DTD/sodipodi-0.dtd"
   xmlns="http://www.w3.org/2000/svg"
   xmlns:svg="http://www.w3.org/2000/svg">
  <sodipodi:namedview
     id="namedview919"
     pagecolor="#ffffff"
     bordercolor="#666666"
     borderopacity="1.0"
     inkscape:pageshadow="2"
     inkscape:pageopacity="0.0"
     inkscape:pagecheckerboard="0"
     inkscape:document-units="mm"
     showgrid="false"
     fit-margin-top="0"
     fit-margin-left="0"
     fit-margin-right="0"
     fit-margin-bottom="0"
     inkscape:zoom="1.2096092"
     inkscape:cx="-200.06462"
     inkscape:cy="118.22"
     inkscape:window-width="1620"
     inkscape:window-height="1122"
     inkscape:window-x="439"
     inkscape:window-y="128"
     inkscape:window-maximized="0"
     inkscape:current-layer="layer1" />
  <defs
     id="defs914" />
  <g
     inkscape:label="Layer 1"
     inkscape:groupmode="layer"
     id="layer1"
     transform="translate(-100.47443,-121.12812)">
    <g
       style="fill:none"
       id="g1027"
       transform="matrix(0.26458333,0,0,0.26458333,107.34773,119.90176)">
      <path
         d="m 12.8097,15.3676 c 0,1.3978 -0.2557,2.5995 -0.7671,3.6051 -0.5113,1.0015 -1.2123,1.7728 -2.10297,2.314 -0.88636,0.5369 -1.89418,0.8054 -3.02344,0.8054 -1.13352,0 -2.14559,-0.2685 -3.03622,-0.8054 C 2.99361,20.7455 2.29474,19.972 1.78338,18.9664 1.27202,17.9607 1.01634,16.7611 1.01634,15.3676 c 0,-1.3977 0.25568,-2.5973 0.76704,-3.5987 C 2.29474,10.7632 2.99361,9.99192 3.87997,9.45499 4.7706,8.9138 5.78267,8.6432 6.91619,8.6432 c 1.12926,0 2.13708,0.2706 3.02344,0.81179 0.89067,0.53693 1.59167,1.30821 2.10297,2.31391 0.5114,1.0014 0.7671,2.201 0.7671,3.5987 z m -1.956,0 c 0,-1.0653 -0.1726,-1.9623 -0.5178,-2.691 -0.34087,-0.733 -0.80962,-1.287 -1.40621,-1.662 -0.59233,-0.3792 -1.2635,-0.5688 -2.0135,-0.5688 -0.75426,0 -1.42755,0.1896 -2.01988,0.5688 -0.59233,0.375 -1.06108,0.929 -1.40625,1.662 -0.34091,0.7287 -0.51137,1.6257 -0.51137,2.691 0,1.0654 0.17046,1.9645 0.51137,2.6975 0.34517,0.7287 0.81392,1.2826 1.40625,1.6619 0.59233,0.375 1.26562,0.5625 2.01988,0.5625 0.75,0 1.42117,-0.1875 2.0135,-0.5625 0.59659,-0.3793 1.06534,-0.9332 1.40621,-1.6619 0.3452,-0.733 0.5178,-1.6321 0.5178,-2.6975 z m 4.2385,6.5455 V 8.82218 h 4.6662 c 1.0142,0 1.8558,0.17471 2.5248,0.52414 0.6733,0.34944 1.1762,0.83308 1.5086,1.45098 0.3324,0.6137 0.4985,1.3232 0.4985,2.1286 0,0.8011 -0.1683,1.5064 -0.5049,2.1157 -0.3324,0.6052 -0.8353,1.076 -1.5085,1.4127 -0.6691,0.3366 -1.5107,0.505 -2.5249,0.505 H 16.2172 V 15.259 h 3.3558 c 0.6392,0 1.1591,-0.0917 1.5597,-0.2749 0.4048,-0.1832 0.701,-0.4496 0.8885,-0.799 0.1875,-0.3494 0.2812,-0.7692 0.2812,-1.2592 0,-0.4943 -0.0959,-0.9226 -0.2876,-1.2848 -0.1875,-0.3622 -0.4837,-0.6392 -0.8885,-0.831 -0.4006,-0.196 -0.9269,-0.294 -1.5788,-0.294 h -2.4802 v 11.397 z m 6.4624,-5.9063 3.2343,5.9063 h -2.25 l -3.1704,-5.9063 z m 15.832,-2.9275 h -1.9943 c -0.0767,-0.4262 -0.2195,-0.8012 -0.4283,-1.125 -0.2088,-0.3239 -0.4644,-0.5987 -0.767,-0.8246 -0.3026,-0.2258 -0.6413,-0.3963 -1.0163,-0.5114 -0.3708,-0.115 -0.765,-0.1725 -1.1826,-0.1725 -0.7542,0 -1.4297,0.1896 -2.0262,0.5688 -0.5924,0.3793 -1.0611,0.9354 -1.4063,1.6684 -0.3409,0.7329 -0.5114,1.6278 -0.5114,2.6846 0,1.0654 0.1705,1.9645 0.5114,2.6975 0.3452,0.7329 0.8161,1.2869 1.4126,1.6619 0.5966,0.375 1.2678,0.5625 2.0135,0.5625 0.4134,0 0.8054,-0.0554 1.1762,-0.1662 0.375,-0.115 0.7138,-0.2834 1.0163,-0.505 0.3026,-0.2215 0.5582,-0.4921 0.7671,-0.8117 0.213,-0.3239 0.36,-0.6947 0.441,-1.1123 l 1.9943,0.0064 c -0.1065,0.6435 -0.3132,1.2358 -0.62,1.777 -0.3026,0.5369 -0.6925,1.0014 -1.1697,1.3935 -0.4731,0.3878 -1.0143,0.6882 -1.6236,0.9013 -0.6094,0.213 -1.2742,0.3196 -1.9943,0.3196 -1.1336,0 -2.1435,-0.2685 -3.0299,-0.8054 -0.8863,-0.5412 -1.5852,-1.3147 -2.0966,-2.3203 -0.5071,-1.0057 -0.7606,-2.2053 -0.7606,-3.5988 0,-1.3977 0.2557,-2.5973 0.767,-3.5987 0.5114,-1.0057 1.2103,-1.77698 2.0966,-2.31391 0.8864,-0.54119 1.8942,-0.81179 3.0235,-0.81179 0.6946,0 1.3423,0.10014 1.9431,0.30043 0.6052,0.19602 1.1485,0.48579 1.63,0.86931 0.4815,0.37926 0.88,0.84376 1.1953,1.39346 0.3154,0.5455 0.5284,1.1698 0.6392,1.8729 z m 2.0301,8.8338 v -9.8182 h 1.9112 v 9.8182 z M 40.3819,10.58 c -0.3324,0 -0.6179,-0.1108 -0.8566,-0.3324 -0.2343,-0.2258 -0.3515,-0.49432 -0.3515,-0.8054 0,-0.31534 0.1172,-0.5838 0.3515,-0.80539 0.2387,-0.22586 0.5242,-0.33878 0.8566,-0.33878 0.3324,0 0.6157,0.11292 0.8501,0.33878 0.2387,0.22159 0.358,0.49005 0.358,0.80539 0,0.31108 -0.1193,0.5796 -0.358,0.8054 -0.2344,0.2216 -0.5177,0.3324 -0.8501,0.3324 z m 7.7285,11.3331 H 43.8725 V 8.82218 h 4.3722 c 1.2826,0 2.3842,0.26207 3.3047,0.78622 0.9204,0.5199 1.6257,1.2678 2.1157,2.2436 0.4943,0.9716 0.7415,2.1371 0.7415,3.4965 0,1.3636 -0.2493,2.5355 -0.7479,3.5156 -0.4943,0.9801 -1.2102,1.7344 -2.1477,2.2628 -0.9375,0.5241 -2.071,0.7862 -3.4006,0.7862 z m -2.2628,-1.7259 h 2.1542 c 0.9971,0 1.826,-0.1875 2.4865,-0.5625 0.6605,-0.3792 1.1548,-0.9268 1.4829,-1.6427 0.3282,-0.7202 0.4922,-1.598 0.4922,-2.6335 0,-1.027 -0.164,-1.8985 -0.4922,-2.6144 -0.3238,-0.7159 -0.8075,-1.2592 -1.451,-1.63 -0.6434,-0.3707 -1.4424,-0.5561 -2.397,-0.5561 h -2.2756 z"
         fill="#f1f5f9"
         id="path1018" />
    </g>
    <g
       style="fill:none"
       id="g1093"
       transform="matrix(0.26458333,0,0,0.26458333,100.09345,120.50542)">
      <path
         d="m 22.5599,12.9135 c 0,5.8328 -4.7272,10.56 -10.56,10.56 -5.83271,0 -10.55996,-4.7272 -10.55996,-10.56 0,-5.83273 4.72725,-10.55998 10.55996,-10.55998 5.8328,0 10.56,4.72725 10.56,10.55998 z"
         fill="#f1f5f9"
         id="path1075" />
      <path
         d="M 8.55969,17.715 H 7.28919 V 8.87927 h 1.2705 z"
         fill="#191919"
         id="path1077" />
      <path
         d="m 10.4242,8.87927 h 3.432 c 3.267,0 4.7025,2.33473 4.7025,4.42203 0,2.2687 -1.7738,4.422 -4.686,4.422 h -3.4485 z m 1.2705,7.69723 h 2.0212 c 2.8793,0 3.5393,-2.1862 3.5393,-3.2752 0,-1.7738 -1.1303,-3.2753 -3.6053,-3.2753 h -1.9552 z"
         fill="#191919"
         id="path1079" />
      <path
         d="m 8.75769,7.03952 c 0,0.45375 -0.37125,0.83325 -0.83325,0.83325 -0.462,0 -0.83325,-0.3795 -0.83325,-0.83325 0,-0.462 0.37125,-0.83325 0.83325,-0.83325 0.462,0 0.83325,0.3795 0.83325,0.83325 z"
         fill="#191919"
         id="path1081" />
    </g>
  </g>
</svg>
